<svg width="93" height="24" viewBox="0 0 93 24" fill="none" xmlns="http://www.w3.org/2000/svg">
<path d="M5.264 5.8H1.2V17H2.688V13H5.264C7.328 13 8.88 11.432 8.88 9.4C8.88 7.352 7.328 5.8 5.264 5.8ZM5.264 11.608H2.688V7.192H5.264C6.496 7.192 7.408 8.12 7.408 9.4C7.408 10.664 6.496 11.608 5.264 11.608ZM11.7136 10.344V9H10.3216V17H11.7136V12.76C11.7136 10.872 13.0096 10.264 14.2096 10.312V8.856C13.2016 8.856 12.2256 9.224 11.7136 10.344ZM18.8941 17.208C21.2301 17.208 23.1181 15.368 23.1181 13C23.1181 10.632 21.2301 8.792 18.8941 8.792C16.5581 8.792 14.6861 10.632 14.6861 13C14.6861 15.368 16.5581 17.208 18.8941 17.208ZM18.8941 15.848C17.3101 15.848 16.0781 14.616 16.0781 13C16.0781 11.384 17.3101 10.152 18.8941 10.152C20.4941 10.152 21.7261 11.384 21.7261 13C21.7261 14.616 20.4941 15.848 18.8941 15.848ZM31.3831 5.8V10.376C30.7431 9.4 29.7191 8.792 28.3591 8.792C26.1351 8.792 24.3111 10.632 24.3111 13C24.3111 15.368 26.1351 17.208 28.3591 17.208C29.7191 17.208 30.7431 16.6 31.3831 15.624V17H32.7751V5.8H31.3831ZM28.5351 15.864C26.9351 15.864 25.7031 14.632 25.7031 13C25.7031 11.368 26.9351 10.136 28.5351 10.136C30.1511 10.136 31.3831 11.368 31.3831 13C31.3831 14.632 30.1511 15.864 28.5351 15.864ZM40.4041 9V13.24C40.4041 15.128 39.3641 15.88 38.0841 15.88C36.8521 15.88 36.1001 15.144 36.1001 13.832V9H34.7081V13.912C34.7081 15.96 35.9401 17.208 37.8121 17.208C38.9321 17.208 39.8121 16.792 40.4041 15.848V17H41.7961V9H40.4041ZM47.6754 17.208C49.2434 17.208 50.6034 16.376 51.2754 15.128L50.0914 14.44C49.6434 15.272 48.7634 15.832 47.6754 15.832C46.0754 15.832 44.8594 14.6 44.8594 13C44.8594 11.384 46.0754 10.152 47.6754 10.152C48.7474 10.152 49.6434 10.712 50.0434 11.56L51.2114 10.888C50.6034 9.624 49.2594 8.792 47.6754 8.792C45.2594 8.792 43.4674 10.632 43.4674 13C43.4674 15.368 45.2594 17.208 47.6754 17.208ZM57.0018 10.344V9H54.8738V6.76L53.4818 7.176V9H51.8978V10.344H53.4818V14.68C53.4818 16.68 54.6018 17.32 57.0018 17V15.752C55.5778 15.816 54.8738 15.896 54.8738 14.68V10.344H57.0018ZM59.4591 11.16C59.4591 10.44 60.1631 10.088 60.8831 10.088C61.5871 10.088 62.2911 10.392 62.5951 11.112L63.7631 10.456C63.2511 9.416 62.1951 8.792 60.8831 8.792C59.2671 8.792 58.0511 9.768 58.0511 11.176C58.0511 14.072 62.5311 13.096 62.5311 14.808C62.5311 15.592 61.7951 15.896 60.9471 15.896C59.9551 15.896 59.2191 15.416 58.9631 14.648L57.7631 15.336C58.2271 16.44 59.3471 17.208 60.9471 17.208C62.6591 17.208 63.9391 16.296 63.9391 14.808C63.9391 11.864 59.4591 12.872 59.4591 11.16Z" fill="#3A3A3A"/>
<path d="M88.8333 9.50012L83 15.3335L77.1667 9.50012" stroke="#3A3A3A" stroke-width="1.8" stroke-linecap="round" stroke-linejoin="round"/>
</svg>
