<svg width="78" height="24" viewBox="0 0 78 24" fill="none" xmlns="http://www.w3.org/2000/svg">
<path d="M7.84 17H9.488L6.848 12.52C8.192 12.04 9.168 10.744 9.168 9.272C9.168 7.352 7.6 5.8 5.68 5.8H1.2V17H2.688V12.712H5.328L7.84 17ZM2.688 7.192H5.68C6.784 7.192 7.68 8.12 7.68 9.272C7.68 10.424 6.784 11.368 5.68 11.368H2.688V7.192ZM14.191 17.208C16.527 17.208 18.415 15.368 18.415 13C18.415 10.632 16.527 8.792 14.191 8.792C11.855 8.792 9.983 10.632 9.983 13C9.983 15.368 11.855 17.208 14.191 17.208ZM14.191 15.848C12.607 15.848 11.375 14.616 11.375 13C11.375 11.384 12.607 10.152 14.191 10.152C15.791 10.152 17.023 11.384 17.023 13C17.023 14.616 15.791 15.848 14.191 15.848ZM23.816 17.208C26.152 17.208 28.04 15.368 28.04 13C28.04 10.632 26.152 8.792 23.816 8.792C21.48 8.792 19.608 10.632 19.608 13C19.608 15.368 21.48 17.208 23.816 17.208ZM23.816 15.848C22.232 15.848 21 14.616 21 13C21 11.384 22.232 10.152 23.816 10.152C25.416 10.152 26.648 11.384 26.648 13C26.648 14.616 25.416 15.848 23.816 15.848ZM38.321 8.792C37.281 8.792 36.369 9.24 35.809 10.152C35.345 9.288 34.545 8.792 33.457 8.792C32.481 8.792 31.649 9.176 31.073 10.072V9H29.681V17H31.073V12.552C31.073 10.824 32.049 10.12 33.121 10.12C34.161 10.12 34.817 10.808 34.817 12.072V17H36.209V12.552C36.209 10.824 37.057 10.12 38.177 10.12C39.233 10.12 39.937 10.808 39.937 12.072V17H41.329V12.024C41.329 10.024 40.097 8.792 38.321 8.792ZM44.4591 11.16C44.4591 10.44 45.1631 10.088 45.8831 10.088C46.5871 10.088 47.2911 10.392 47.5951 11.112L48.7631 10.456C48.2511 9.416 47.1951 8.792 45.8831 8.792C44.2671 8.792 43.0511 9.768 43.0511 11.176C43.0511 14.072 47.5311 13.096 47.5311 14.808C47.5311 15.592 46.7951 15.896 45.9471 15.896C44.9551 15.896 44.2191 15.416 43.9631 14.648L42.7631 15.336C43.2271 16.44 44.3471 17.208 45.9471 17.208C47.6591 17.208 48.9391 16.296 48.9391 14.808C48.9391 11.864 44.4591 12.872 44.4591 11.16Z" fill="#3A3A3A"/>
<path d="M73.8333 9.50012L68 15.3335L62.1667 9.50012" stroke="#3A3A3A" stroke-width="1.8" stroke-linecap="round" stroke-linejoin="round"/>
</svg>
